<?xml version="1.0" encoding="UTF-8"?>
<svg id="Ebene_2" data-name="Ebene 2" xmlns="http://www.w3.org/2000/svg" xmlns:xlink="http://www.w3.org/1999/xlink" viewBox="0 0 188.92 189.16">
  <defs>
    <style>
      .cls-1, .cls-2 {
        fill: #1b181c;
      }

      .cls-1, .cls-3, .cls-4 {
        fill-rule: evenodd;
      }

      .cls-5 {
        fill: url(#Unbenannter_Verlauf_20);
        isolation: isolate;
      }

      .cls-3 {
        fill: url(#Unbenannter_Verlauf_4);
      }

      .cls-4 {
        fill: url(#Unbenannter_Verlauf_5);
      }
    </style>
    <radialGradient id="Unbenannter_Verlauf_5" data-name="Unbenannter Verlauf 5" cx="94.06" cy="97.52" fx="94.06" fy="97.52" r="85.7" gradientTransform="translate(0 192.27) scale(1 -1)" gradientUnits="userSpaceOnUse">
      <stop offset="0" stop-color="#fff"/>
      <stop offset=".18" stop-color="#f9f9f9"/>
      <stop offset=".44" stop-color="#e5e6e6"/>
      <stop offset=".74" stop-color="#c7c7c8"/>
      <stop offset="1" stop-color="#a5a7a8"/>
    </radialGradient>
    <radialGradient id="Unbenannter_Verlauf_4" data-name="Unbenannter Verlauf 4" cx="94.5" cy="97.68" fx="94.5" fy="97.68" r="94.09" gradientTransform="translate(0 192.27) scale(1 -1)" gradientUnits="userSpaceOnUse">
      <stop offset=".43" stop-color="#fff"/>
      <stop offset=".53" stop-color="#f9f9f9"/>
      <stop offset=".68" stop-color="#e5e6e6"/>
      <stop offset=".85" stop-color="#c7c7c8"/>
      <stop offset="1" stop-color="#a5a7a8"/>
    </radialGradient>
    <radialGradient id="Unbenannter_Verlauf_20" data-name="Unbenannter Verlauf 20" cx="94.1" cy="93.01" fx="94.1" fy="93.01" r="64.16" gradientUnits="userSpaceOnUse">
      <stop offset=".01" stop-color="#fff"/>
      <stop offset=".67" stop-color="#fdc619"/>
    </radialGradient>
  </defs>
  <g id="Ebene_1-2" data-name="Ebene 1">
    <g>
      <path class="cls-4" d="M155.49,114.31c.68-2.14,1.25-4.32,1.7-6.52,1.77.05,3.53-.34,5.11-1.13,8.93-4.57,17.6-11.92,17.6-11.92,0,0-8.66-7.31-17.6-11.92-1.59-.8-3.35-1.19-5.12-1.13-.46-2.2-1.03-4.37-1.72-6.5,1.65-1.02,3.06-2.39,4.14-4,3.47-6.13,6.38-12.57,8.67-19.23,0,0-11.09-2.16-21.12-1.9-1.84.18-3.62.72-5.25,1.58-1.41-1.56-2.88-3.05-4.43-4.46.92-1.7,1.44-3.58,1.52-5.51.27-10.02-2.17-21.12-2.17-21.12,0,0-10.56,3.81-18.95,9.21-1.53.96-2.83,2.24-3.81,3.76-1.93-.64-3.92-1.2-5.95-1.65-.05-1.85-.51-3.67-1.32-5.33-3.51-6.14-7.59-11.95-12.18-17.33,0,0-7.61,8.38-12.18,17.33-.83,1.57-1.28,3.32-1.33,5.09-2.24.46-4.45,1.03-6.63,1.73-1.02-1.62-2.37-3.02-3.95-4.11-6.13-3.48-12.57-6.38-19.23-8.68-1.14,6.99-1.77,14.04-1.9,21.12.23,1.74.83,3.42,1.74,4.92-1.81,1.6-3.53,3.3-5.15,5.09-1.61-.92-3.4-1.47-5.25-1.61-10.02-.27-21.12,1.9-21.12,1.9,0,0,4.57,12.18,9.21,19.22.62,1.01,1.99,2.11,3.86,3.24-.73,2.17-1.34,4.37-1.83,6.6-1.81-.04-3.61.3-5.28,1-8.93,4.87-17.33,12.18-17.33,12.72s8.38,7.85,17.33,12.73c1.67.69,3.46,1.03,5.26.99.49,2.24,1.09,4.45,1.81,6.62-1.48.79-2.78,1.88-3.81,3.21-4.57,7.04-9.21,19.22-9.21,19.22,0,0,11.1,2.17,21.12,1.9,1.8-.13,3.54-.65,5.12-1.52,1.62,1.82,3.35,3.54,5.17,5.16-.87,1.46-1.43,3.07-1.65,4.75.12,7.08.76,14.14,1.9,21.12,6.67-2.29,13.11-5.19,19.25-8.66,1.51-1.03,2.81-2.36,3.81-3.89,2.23.72,4.5,1.31,6.8,1.78.08,1.68.53,3.33,1.32,4.82,4.57,8.94,12.18,17.33,12.18,17.33,4.59-5.38,8.67-11.19,12.18-17.33.79-1.58,1.24-3.32,1.32-5.09,2.09-.47,4.14-1.04,6.16-1.71.94,1.43,2.18,2.64,3.63,3.55,8.38,5.41,18.95,9.21,18.95,9.21,0,0,2.44-11.11,2.17-21.12-.09-1.86-.6-3.68-1.48-5.33,1.58-1.45,3.05-2.97,4.5-4.57,1.59.83,3.32,1.35,5.11,1.52,10.02.27,21.12-1.9,21.12-1.9-2.29-6.66-5.19-13.1-8.66-19.22-1.07-1.62-2.48-2.98-4.13-4Z"/>
      <path class="cls-1" d="M30.38,80.56c-1.73,0-3.45.35-5.04,1.03-8.21,4.48-17.59,12.11-17.59,13.14s9.38,8.66,17.57,13.13c1.62.68,3.37,1.03,5.13,1.01v.05c.44,1.99.99,3.97,1.62,5.92h0c-1.43.78-2.67,1.85-3.64,3.16-4.57,6.99-9.2,19.18-9.24,19.3l-.2.52.54.11c.11,0,11.27,2.18,21.22,1.9,1.72-.09,3.4-.55,4.93-1.35l.05-.05c1.49,1.65,3.07,3.22,4.72,4.71v.05c-.81,1.4-1.33,2.96-1.52,4.57.12,7.12.75,14.23,1.89,21.27l.09.53.52-.17c.1,0,10.7-3.59,19.32-8.71,1.48-1,2.75-2.27,3.75-3.75h.05c2.03.64,4.1,1.18,6.09,1.61v.09c.12,1.6.58,3.15,1.33,4.57,4.57,8.87,12.18,17.33,12.24,17.41l.35.4.35-.4c4.61-5.41,8.71-11.24,12.24-17.41.78-1.54,1.23-3.22,1.34-4.94h.05c1.85-.43,3.69-.94,5.48-1.52l.05.05c.94,1.35,2.14,2.49,3.53,3.36,8.32,5.37,18.93,9.21,19.03,9.24l.49.18.11-.52c0-.11,2.44-11.28,2.18-21.23-.08-1.83-.55-3.62-1.39-5.25h.07c1.37-1.27,2.71-2.64,4-4.07l.07.05c1.53.76,3.19,1.23,4.89,1.38,9.97.27,21.13-1.88,21.23-1.9l.53-.11-.17-.5c0-.11-3.59-10.7-8.7-19.32-1.03-1.57-2.37-2.92-3.95-3.94v-.07c.61-1.96,1.11-3.91,1.52-5.83h.07c1.7.01,3.39-.39,4.9-1.19,8.85-4.57,17.57-11.89,17.66-11.96l.43-.36-.43-.36c-.09-.08-8.81-7.4-17.69-11.98-1.53-.8-3.24-1.2-4.96-1.18v-.05c-.41-1.91-.92-3.87-1.52-5.81h0c1.58-1.02,2.93-2.36,3.96-3.94,5.11-8.61,8.67-19.22,8.71-19.32l.17-.51-.53-.1c-.11,0-11.27-2.17-21.22-1.9-1.75.15-3.45.62-5.02,1.39h-.05v-.04c-1.72-1.89-3.11-3.17-3.94-3.96h0c.87-1.67,1.36-3.5,1.44-5.38.27-9.95-2.15-21.11-2.18-21.23l-.11-.52-.49.18c-.11,0-10.71,3.88-19.03,9.26-1.48.92-2.74,2.15-3.71,3.6h-.05c-1.74-.56-3.53-1.05-5.33-1.46h0c-.09-1.8-.55-3.56-1.36-5.18-3.53-6.17-7.63-12-12.24-17.41l-.35-.4-.35.39c-.08.08-7.68,8.54-12.26,17.43-.81,1.52-1.28,3.2-1.37,4.93h-.05c-1.97.41-3.98.94-5.96,1.56l-.02-.04c-1.02-1.55-2.33-2.88-3.87-3.92-8.62-5.12-19.22-8.68-19.33-8.72l-.52-.18-.09.54c-1.14,7.01-1.78,14.1-1.9,21.2.21,1.69.77,3.31,1.63,4.77l-.06.06c-1.64,1.46-3.18,3-4.61,4.57h-.07c-1.57-.85-3.3-1.35-5.08-1.47-9.94-.27-21.11,1.88-21.21,1.9l-.54.11.2.52c.05.12,4.67,12.31,9.25,19.32.99,1.31,2.25,2.38,3.69,3.16v.05c-.64,1.93-1.18,3.92-1.63,5.89h-.09ZM159.19,118.53c5.06,8.52,8.59,19.03,8.62,19.13l.35-.6c-.11,0-11.16,2.15-21.01,1.89-1.72-.17-3.39-.67-4.92-1.47l-.32-.15-.24.26c-1.43,1.6-2.93,3.12-4.47,4.57l-.26.24.15.31c.85,1.59,1.34,3.35,1.43,5.15.27,9.85-2.13,20.91-2.15,21.02l.61-.34c-.11,0-10.61-3.81-18.86-9.14-1.4-.88-2.59-2.05-3.5-3.43l-.2-.28-.33.11c-1.99.66-4.05,1.23-6.09,1.7l-.34.08v.34c-.07,1.7-.5,3.37-1.26,4.9-4.8,8.79-12.05,17.16-12.12,17.25h.69c-.08-.08-7.61-8.45-12.11-17.23-.76-1.44-1.19-3.02-1.26-4.64v-.35l-.34-.07c-2.28-.47-4.53-1.06-6.75-1.77l-.33-.11-.2.29c-.99,1.47-2.26,2.73-3.74,3.71-6.1,3.45-12.5,6.33-19.13,8.62l.61.37c-1.13-6.96-1.76-13.99-1.89-21.04.22-1.6.76-3.14,1.59-4.53l.18-.33-.27-.24c-1.82-1.62-3.54-3.34-5.16-5.15l-.24-.27-.32.16c-1.5.86-3.18,1.38-4.9,1.52-9.86.22-20.91-1.95-21.03-1.95l.35.62c.05-.12,4.64-12.18,9.14-19.13.55-.89,1.78-1.92,3.68-3.05l.32-.19-.11-.35c-.71-2.16-1.31-4.36-1.8-6.58l-.08-.36h-.37c-1.73.04-3.46-.28-5.06-.94-8.74-4.77-16.67-11.69-17.11-12.46.01.05.01.1,0,.15.01.05.01.1,0,.15.43-.76,8.38-7.7,17.12-12.47,1.61-.67,3.34-1.01,5.09-.97h.37l.08-.36c.49-2.21,1.09-4.4,1.81-6.55l.12-.36-.32-.19c-1.91-1.15-3.15-2.19-3.7-3.05-4.57-6.93-9.14-19.03-9.14-19.15l-.35.62c.11,0,11.17-2.15,21.02-1.89,1.78.13,3.5.65,5.06,1.52l.31.16.24-.27c1.61-1.78,3.32-3.46,5.12-5.05l.27-.25-.18-.33c-.88-1.44-1.45-3.05-1.68-4.72.13-7.04.76-14.06,1.89-21.01l-.61.37c.11,0,10.61,3.56,19.13,8.63,1.52,1.05,2.82,2.4,3.81,3.97l.2.29.33-.11c2.16-.69,4.36-1.26,6.59-1.71l.34-.08v-.35c.05-1.7.48-3.38,1.27-4.89,4.53-8.79,12.05-17.16,12.12-17.25h-.69c.07.08,7.33,8.46,12.12,17.25.79,1.61,1.22,3.38,1.27,5.17v.35l.34.08c2.01.45,4.01,1.01,5.95,1.64l.33.11.2-.29c.93-1.46,2.17-2.7,3.63-3.62,8.28-5.33,18.78-9.14,18.88-9.17l-.61-.34c0,.11,2.42,11.17,2.15,21.01-.1,1.87-.62,3.69-1.52,5.33l-.16.31.27.24c1.52,1.4,3.05,2.89,4.4,4.43l.24.27.32-.16c1.57-.84,3.29-1.35,5.06-1.52,9.84-.27,20.89,1.87,21,1.89l-.35-.61c0,.11-3.56,10.61-8.62,19.13-1.04,1.56-2.4,2.88-4,3.86l-.29.2.11.34c.68,2.12,1.25,4.27,1.71,6.45l.08.37h.37c1.7-.07,3.38.3,4.9,1.07,8.81,4.57,17.45,11.8,17.51,11.87v-.7c-.08.07-8.73,7.32-17.51,11.85-1.52.77-3.2,1.15-4.9,1.08h-.28l-.08.37c-.45,2.19-1.01,4.35-1.69,6.48l-.11.34.29.2c1.56.98,2.9,2.27,3.93,3.81h0Z"/>
      <path class="cls-3" d="M72.4,105.3s-51.18,23.82-55.24,30.33c-5.41,8.38-5.41,6.49,3.81,6.23,7.85-.27,53.34-33.58,53.08-33.58l6.5,6.49s-32.5,45.76-32.74,53.89c-.27,9.75-1.08,8.66,6.5,3.52,6.49-4.33,29.25-55.79,29.25-55.79l8.93,2.44s-4.88,56.06-1.36,63.1c4.07,8.94,2.98,9.21,7.32,0,3.24-7.31-2.71-63.1-2.71-63.1l8.94-2.16s23.83,50.91,30.33,55.24c8.66,5.69,6.78,5.96,6.23-3.81-.27-7.86-33.58-53.35-33.58-53.35l6.49-6.23s45.77,32.5,53.89,32.5c11.37.54,9.21,2.16,3.81-6.23-4.57-6.77-55.79-29.24-56.05-29.24l2.7-8.94s55.79,4.87,62.83,1.36c9.48-4.57,9.75-2.7,0-7.31-7.04-3.25-62.83,2.44-63.1,2.44l-2.17-8.94c0,.27,50.91-23.56,55.24-30.06,6.5-9.48,5.69-7.61-4.06-6.49-8.12.81-52.8,33.85-53.08,33.58l-6.23-6.23s31.98-45.76,32.74-53.89c1.09-11.1,1.63-9.75-6.77-4.07-6.81,4.64-29.02,56.11-29.02,56.11l-8.96-2.46s5.15-56.05,1.9-63.1c-4.34-9.48-3.25-9.48-7.85.27-3.25,7.31,2.7,62.82,2.7,62.82l-8.93,2.46s-23.53-50.93-30.31-55.26c-9.21-5.95-6.77-6.49-6.24,3.49.27,8.12,33.58,53.34,33.58,53.34l-6.5,6.49S28.53,48.73,20.4,48.42c-9.21-.27-9.75-2.7-3.52,6.5,4.33,6.78,55.51,29.24,55.51,29.24l-2.44,9.21s-55.79-5.41-63.11-1.89c-8.12,4.06-8.94,2.98,0,7.31,7.31,3.52,63.1-1.9,63.1-1.9l2.45,8.4Z"/>
      <path class="cls-1" d="M72.2,104.87c-2.09.96-51.35,23.96-55.45,30.5l-1.74,2.63c-1.73,2.59-2.28,3.46-1.9,4.16s1.3.57,3.54.4c1.13-.09,2.54-.2,4.29-.25,3.37-.11,13.36-5.8,29.69-16.9,6.61-4.48,12.58-8.72,16.42-11.47,7.39-5.33,7.39-5.38,7.39-5.68v-.46h-1.55l.8.8,6.49,6.49-.05-.6c-1.32,1.87-32.57,45.97-32.85,54.14l-.08,2.69c-.13,3.38-.18,4.64.61,5.06s1.66-.25,3.87-1.84c.76-.55,1.71-1.23,2.84-1.99,6.53-4.36,28.48-53.87,29.41-55.98l-.55.26,8.93,2.44-.34-.49c-.2,2.28-4.85,56.27-1.31,63.35l1.3,2.95c1.3,2.99,1.79,4.11,2.68,4.12s1.47-1.22,2.97-4.48l1.2-2.59c3.27-7.35-2.42-61.06-2.67-63.34l-.35.5,8.94-2.16-.54-.25c.97,2.08,23.96,51.08,30.49,55.43,1.25.81,2.28,1.52,3.11,2.09,2.43,1.67,3.25,2.23,3.91,1.83s.54-1.32.3-3.62c-.12-1.19-.27-2.66-.38-4.51-.27-7.9-32.31-51.74-33.67-53.59l-.05.62,6.5-6.23-.59.05c1.87,1.33,45.98,32.58,54.16,32.58,2.08.1,3.74.24,4.95.34,2.47.21,3.31.27,3.63-.31s-.15-1.15-1.25-2.57c-.76-1.02-1.88-2.43-3.16-4.41-4.64-6.85-56.08-29.47-56.44-29.47l.45.6,2.7-8.94-.49.33c2.28.2,55.99,4.85,63.07,1.31,1.74-.85,3.14-1.46,4.29-1.96,2.28-1.01,3.18-1.39,3.18-2.13s-.85-1.13-3.4-2.23c-1.08-.47-2.44-1.06-4.07-1.83-5.98-2.76-45.61.69-62.38,2.28l-.94.09.48.36-2.17-8.94-.92.11v.37l.34.11c.19.06.35.11,8.5-3.77,3.43-1.63,10.33-4.95,17.98-8.82,12.08-6.14,26.98-14.18,29.28-17.66l.95-1.39c2.78-4.04,3.72-5.4,3.18-6.25s-1.7-.56-4.4-.16c-1.14.18-2.57.38-4.24.57-6.33.63-33.65,19.91-46.78,29.18-3.39,2.39-6.09,4.28-6.39,4.43.17-.06.36-.02.48.11l-6.23-6.24.05.6c1.31-1.87,32.03-45.96,32.85-54.11l.24-2.44c.45-4.35.6-5.82-.26-6.32s-1.85.29-4.39,2.1c-.88.63-1.89,1.34-3.09,2.15-6.8,4.65-28.22,54.2-29.14,56.28l.55-.27-8.93-2.44.34.49c.21-2.28,5.11-56.26,1.85-63.33l-1.23-2.78c-1.52-3.34-2.04-4.57-2.99-4.57s-1.52,1.28-3.14,4.73l-1.34,2.89c-3.27,7.35,2.42,60.8,2.66,63.07l.34-.5-8.93,2.44.55.25c-.97-2.06-23.7-51.08-30.51-55.44-1.74-1.13-3.05-2.07-4.06-2.76-1.95-1.37-2.61-1.83-3.18-1.52s-.46,1.04-.21,2.94c.17,1.26.38,2.97.5,5.25.27,8.16,32.31,51.77,33.67,53.59l.05-.61-6.5,6.5.6-.05c-1.87-1.3-45.97-32.55-54.14-32.82-1.99-.05-3.59-.22-4.76-.34-1.98-.2-2.89-.29-3.25.34s.21,1.59,2.28,4.57l1.84,2.69c4.36,6.8,53.62,28.49,55.71,29.41l-.26-.55-2.44,9.21.49-.35c-2.28-.22-56-5.39-63.34-1.85-1.2.59-2.2,1.07-3.09,1.52-2.57,1.11-3.62,1.61-3.62,2.47s1.28,1.52,4.71,3.18l1.96.94c7.35,3.54,61.06-1.63,63.35-1.85l-.49-.34,2.43,8.38.25-.54ZM69.92,96.44h0c-.56.05-55.74,5.33-62.85,1.93l-1.96-.91c-2.19-1.05-4.09-1.96-4.17-2.35h0c.08-.32,1.58-1.03,3.05-1.71.85-.4,1.9-.89,3.11-1.52,7.1-3.42,62.28,1.89,62.84,1.95h.4l.1-.39,2.44-9.21.1-.39-.37-.16c-.51-.22-51.1-22.49-55.31-29.07l-1.85-2.7c-1.26-1.8-2.24-3.24-2.2-3.59,0,.03-.02.06-.05.08.8-.09,1.6-.06,2.39.08,1.18.12,2.81.28,4.83.34,7.89.27,53.17,32.36,53.63,32.68l.32.23.28-.28,6.49-6.49.29-.28-.24-.33c-.34-.45-33.23-45.2-33.5-53.08-.12-2.32-.35-4.06-.51-5.33-.14-.69-.19-1.4-.16-2.1-.04.06-.1.1-.18.11.81.38,1.58.86,2.28,1.42.98.69,2.34,1.64,4.09,2.79,6.58,4.21,29.92,54.54,30.16,55.05l.17.36.38-.11,8.94-2.44.38-.11-.04-.4c-.06-.56-5.91-55.47-2.74-62.59l1.34-2.89c.97-2.12,1.89-4.12,2.28-4.18h0c.38.07,1.24,2,2.15,4.05l1.23,2.82c3.16,6.85-1.88,62.3-1.93,62.85v.39l.38.11,8.93,2.44.4.11.16-.37c.22-.51,22.22-51.38,28.8-55.85,1.22-.82,2.28-1.57,3.11-2.17,1.52-1.07,3.05-2.17,3.39-2.05h0c.33.27.08,2.66-.2,5.41l-.25,2.44c-.76,7.91-32.37,53.2-32.69,53.66l-.22.32.27.28,6.23,6.23c.32.32.36.3,2.41-1.13l4.71-3.3c12.04-8.5,40.25-28.4,46.34-29.01,1.7-.19,3.13-.4,4.28-.57,1.58-.24,3.22-.48,3.47-.27h0c.14.44-1.32,2.56-3.16,5.23l-.96,1.39c-4.06,6.09-52.37,29.09-54.96,29.87l.38.08.18.37-.92.11,2.17,8.93.08.36h.37l1.01-.09c34.76-3.34,57.86-4.23,61.89-2.39,1.65.76,3.01,1.37,4.1,1.84,1.01.35,1.97.84,2.86,1.44-.02-.04-.02-.09,0-.13-.82.56-1.7,1.01-2.63,1.34-1.14.49-2.57,1.12-4.32,1.97-6.85,3.43-62.02-1.36-62.58-1.4h-.38l-.11.36-2.7,8.94-.18.6h.56-.13c.46.16,51.33,22.5,55.8,29.06,1.29,2,2.39,3.43,3.19,4.46.45.5.83,1.06,1.15,1.65,0-.07.03-.14.09-.18-.93.07-1.87.04-2.8-.1-1.22-.1-2.89-.24-5.01-.34-7.9,0-53.18-32.08-53.64-32.41l-.31-.22-.28.27-6.49,6.23-.3.28.24.34c.34.46,33.23,45.46,33.5,53.08.11,1.9.26,3.37.38,4.57.16.91.2,1.83.11,2.75.02-.03.05-.04.08-.05-.31,0-1.52-.81-2.95-1.78-.84-.57-1.87-1.29-3.12-2.11-6.31-4.2-29.92-54.54-30.17-55.05l-.16-.35-.37.09-8.93,2.17-.4.1.05.41c.06.56,5.91,55.74,2.75,62.85l-1.2,2.59c-.94,2.06-1.75,3.81-2.12,3.94h0c-.34-.11-1.07-1.79-1.85-3.56l-1.31-2.97c-3.43-6.85,1.35-62.3,1.39-62.86v-.39l-.37-.1-8.94-2.44-.39-.11-.16.37c-.23.51-22.77,51.37-29.08,55.58-1.13.76-2.09,1.46-2.86,2.01-1.32.95-2.58,1.85-2.89,1.77h0c-.27-.24-.21-2.08-.12-4.22l.09-2.7c.27-7.89,32.36-53.17,32.68-53.63l.23-.32-.27-.28-6.5-6.5-.33.76-.43-.3.11-.49c-.36.33-45.1,33.17-52.76,33.44-1.77.05-3.2.16-4.33.25-.89.13-1.8.13-2.69,0,0,.02,0,.04,0,.05-.05-.33.84-1.65,1.86-3.19l1.74-2.65c3.95-6.31,54.54-29.91,55.05-30.16l.37-.17-.11-.38-2.44-8.38-.11-.37-.33.05Z"/>
      <path class="cls-5" d="M91.43,54.27l2.93-4.09,2.68,4.08h2.83l-.46.38c-2.09,2.1-1.81,6.85,2.15,7.08,2.18.08,4.02-1.62,4.1-3.8.04-.95-.28-1.89-.88-2.63l-.49-.64,2.65.17,2.7-3.65,2.6,4.32,3.11.47-.59.54c-2.39,1.45-2.35,6.34,1.37,7.08,3.72.74,5.74-3.33,3.97-5.99l-.5-.76,2.16.49,2.47-2.91s-2.77,50.71-3.32,57.77c-.6,7.77-5.73,23.65-26.58,23.65s-25.99-15.86-26.58-23.63c-.55-7.06-3.81-57.8-3.81-57.8l2.57,3.01,2.16-.49-.51.76c-1.77,2.66.23,6.72,3.97,5.98,3.75-.74,3.75-5.62,1.37-7.08l-.45-.56,2.91-.5,2.13-4.29,3.36,3.59,2.51-.18-.5.64c-1.37,1.7-1.11,4.19.59,5.56.74.6,1.68.91,2.63.88,3.96-.23,4.23-4.98,2.15-7.08l-.31-.39h2.89v.02Z"/>
      <path class="cls-2" d="M94.41,50.94l-2.74,3.81s-2.22,0-2.28.05c2.47,2.47,1.02,7.22-2.64,7.43-2.37.11-4.38-1.73-4.49-4.11-.05-1.05.29-2.07.95-2.89l-1.88.13-3.17-3.37-1.99,3.97s-2.47.47-2.52.43c2.6,1.58,2.65,6.91-1.52,7.73s-6.27-3.67-4.36-6.53l-1.52.34-1.82-2.12c.69,10.7,3.16,49.31,3.71,56.34.6,7.67,5.55,23.11,26.21,23.11s25.61-15.44,26.21-23.11c.55-7.04,2.6-45.68,3.27-56.4l-1.74,2.12-1.52-.34c1.92,2.86-.21,7.34-4.36,6.53s-4.1-6.14-1.52-7.73c-.05.05-2.58-.37-2.58-.37l-2.42-4-2.51,3.37-2.06-.13c1.49,1.85,1.2,4.56-.65,6.05-.82.66-1.84.99-2.89.95-3.67-.21-5.12-4.95-2.64-7.43-.05-.05-2.06,0-2.06,0l-2.51-3.81.06-.02ZM94.41,136.22c-21.43,0-26.59-16.13-27.21-24.04-.63-8.18-3.86-58.88-3.86-58.88l3.33,3.52,3.16-.7c-3.81,4.02-.53,7.79,1.99,7.22,3.56-.81,3.76-5.82-.43-7.48l4.13-.76,2.47-4.68,3.69,3.91,3.61-.26c-3.9,3.6-1.45,7.52,1.52,7.29s4.48-4.95.19-7.41l4.1-.14,3.27-4.27,3.05,4.27,3.9.11c-4.28,2.47-2.82,7.18.19,7.41s5.45-3.69,1.52-7.29l3.72.26,3.05-3.97,3.05,4.71,4.13.76c-4.19,1.66-4,6.67-.43,7.48,2.51.57,5.82-3.2,1.99-7.22l3.17.7,3.33-3.52s-2.79,50.76-3.44,58.96c-.62,7.9-5.78,24.04-27.2,24.04h.02Z"/>
      <path class="cls-2" d="M94.41,55.34l-2.5,8.01s-8.38.39-10.06.66l-.3.05-2.92-7.56-1.68,8.15c-3.31.51-6.6,1.18-9.84,2.03l-2.9-6.09v-1.79l3.32,6.97c2.36-.64,6.33-1.39,8.79-1.78l2.12-10.19,3.62,9.4c1.95-.24,7.87-.56,9.19-.62l3.17-9.64,2.69,9.65c1.32.07,7.24.39,9.19.62l3.35-9.33,2.62,10.13c2.45.4,6.17,1.01,8.65,1.59l3.53-8.45-.33,2.57-2.62,6.85c-3.29-.84-6.63-1.47-10-1.89l-2.01-8.34-2.5,7.67c-1.69-.27-10.52-.63-10.52-.63l-2.04-8.04Z"/>
      <path class="cls-2" d="M65.15,68.97s-.09,0-.14,0v-.76c17.03-5.48,41.63-5.51,58.66,0l-.05.76c-16.91-5.52-41.49-5.5-58.44,0h-.03Z"/>
      <path class="cls-2" d="M65.2,71.12h-.12l-.08-1.03c16.99-5.45,41.46-5.49,58.5-.05l-.06,1.04c-16.87-5.47-41.37-5.45-58.25,0v.03Z"/>
      <path class="cls-2" d="M83.08,112.81c0,.21,0,.49.11.55s.59-.18.82-.76c-.32-.02-.65.04-.94.18v.03ZM81,115.1c-.17-.69-.29-1.39-.38-2.1.05-.21,2.28-1.31,4.51-1.31.5-.02,1,.06,1.46.26.55-.22,1.14-.34,1.74-.37-.07.76-.43.97-.43.97.8.44,1.69,2.95,1.81,4.39,1.11.52,4.29,2.41,10.2-.14,3.92-1.68,6.95.67,7.69-1.58.17-.52.17-1.2-.87-1.87-1.22-.76-3.43-.46-6.7,1.07-2.59,1.21-4.94,1.96-6.24,1.97-1.57,0-2.84-1.27-2.85-2.84.07-1.71,2.51-2.63,2.66-2.42.25.37-1.71,1.68-.76,3.21s2.4.8,3.15.58c3.05-.92,7.93-4.34,11.24-2.6,2.87,1.52,1.52,4.81.11,4.97.86,1.61,1.43,3.36,1.67,5.18l2.49.81-.11,3.89h-4.42s-.56-1.52,2.16-1.84c-1.88-.74-3.62-1.82-5.11-3.18-1.07,1.53-1.89,3.23-2.42,5.03h-5.33s-.65-1.77,3.27-1.95c-.01-1.42.05-2.84.19-4.26-2.44.1-4.18,3.71-9.69,3.75-.05.21-.17.58-.17.58-2.1.8-4.26,1.43-6.46,1.87h-6.51c0-.37-.37-1.9,3.57-1.61.88-.81,1.84-1.53,2.86-2.13-1.36-.69-4.63-2.79-5.29-3.68,0-1.02-.62-1.68-2.41-.84-.17-2.19,2.73-3.05,3.91-.87,1.09.04,2.18.19,3.24.45.07-.5.14-1.16.21-1.37-.24.21-1.08.85-1.36.6-.36-.4-.53-.93-.47-1.47.36.62.85.42.99-.27-.96.1-4.32.76-3.31-2.95.37,1.36.76,2.68,3.29,2.18-.07-.34-.76-1.2-1.17-.15h.03Z"/>
      <path class="cls-2" d="M80.04,92.21c0,.24,0,.59.14.64s.76-.21,1.05-.86c-.41-.03-.83.05-1.2.21h0ZM77.52,94.91c-.21-.8-.37-1.62-.48-2.44.06-.24,2.88-1.52,5.76-1.52.63.04,1.25.14,1.86.3.71-.26,1.46-.4,2.22-.43-.09.91-.54,1.13-.54,1.13,1.02.52,2.15,3.43,2.28,5.11,1.86.76,5.47,2.81,13-.15,4.99-1.96,8.85.76,9.79-1.83.22-.6.22-1.39-1.1-2.17-1.52-.91-4.36-.53-8.54,1.26-3.3,1.41-6.29,2.28-7.93,2.28-1.86,0-3.71-1.43-3.62-3.3.09-1.99,3.21-3.05,3.39-2.82.32.43-2.19,1.96-.93,3.73s3.05.94,4.02.67c3.92-1.07,10.1-5.05,14.32-3.05,3.65,1.76,1.92,5.6.15,5.78,1.02,1.32,2,4.77,2.13,6.02l3.17.94-.14,4.52h-5.69s-.72-1.8,2.76-2.15c-2.37-.83-4.57-2.08-6.5-3.69-1.89,2.11-3.08,5.84-3.08,5.84h-6.74s-.84-2.05,4.16-2.28c-.02-1.65.06-3.31.24-4.95-2.73.12-5.48,4.31-12.34,4.37-.06.24-.21.67-.21.67-2.67.94-5.42,1.69-8.2,2.22h-8.38c0-.43-.48-2.2,4.57-1.87,1.13-.95,2.35-1.78,3.65-2.47-1.74-.76-5.9-3.24-6.74-4.28,0-1.2-.87-1.96-3.14-.98-.21-2.54,3.56-3.52,5.06-1.01,1.39.05,2.77.22,4.13.52.06-.53.15-1.06.27-1.58-.3.24-1.38.97-1.74.7-.44-.45-.66-1.08-.59-1.71.45.76,1.07.49,1.26-.3-1.23.12-5.51.91-4.22-3.43.48,1.59.92,3.11,4.2,2.54-.09-.4-.96-1.41-1.52-.18h0Z"/>
      <path class="cls-2" d="M77.12,74.13c-.22-.81-.38-1.63-.49-2.46.06-.25,2.95-1.52,5.9-1.52.64.04,1.28.14,1.9.31.74-.26,1.51-.4,2.28-.43-.09.92-.56,1.13-.56,1.13,1.04.53,2.22,3.44,2.37,5.13,1.9.76,5.61,2.82,13.33-.15,5.12-1.97,9.08.76,10.05-1.84.22-.6.23-1.39-1.13-2.19-1.6-.92-4.47-.53-8.76,1.26-3.37,1.41-6.45,2.28-8.14,2.28-1.9,0-3.81-1.44-3.72-3.32.09-1.99,3.29-3.05,3.47-2.82.33.43-2.25,1.97-.95,3.75s3.14.94,4.12.68c4.03-1.07,10.36-5.07,14.69-3.05,3.75,1.76,1.97,5.62.15,5.8,1.04,1.32,2.06,4.8,2.19,6.09l3.26.95-.15,4.57h-5.84s-.76-1.81,2.82-2.15c-2.42-.84-4.68-2.09-6.67-3.72-1.93,2.12-3.16,5.87-3.16,5.87h-6.94s-.86-2.06,4.27-2.28c-.01-1.66.07-3.33.24-4.98-2.79.12-5.62,4.33-12.65,4.39-.06.24-.21.68-.21.68-2.76.93-5.58,1.67-8.45,2.19h-8.54c0-.43-.49-2.22,4.67-1.87,1.16-.96,2.42-1.79,3.75-2.49-1.78-.76-6.05-3.26-6.91-4.3,0-1.2-.89-1.96-3.23-.98-.21-2.55,3.65-3.53,5.19-1.01,1.43.05,2.85.23,4.24.53.06-.54.15-1.07.27-1.6-.3.24-1.42.98-1.78.71-.45-.45-.68-1.08-.61-1.72.46.76,1.1.49,1.29-.3-1.26.12-5.66.92-4.32-3.44.49,1.6.95,3.14,4.3,2.55-.09-.4-.99-1.42-1.52-.18l-.02-.05ZM79.79,71.42c0,.25,0,.59.15.65s.76-.21,1.07-.86c-.42-.03-.85.04-1.23.21h0Z"/>
    </g>
  </g>
</svg>