<?xml version="1.0" encoding="UTF-8"?>
<svg id="Ebene_1" xmlns="http://www.w3.org/2000/svg" version="1.1" viewBox="0 0 204.1 204.1">
  <!-- Generator: Adobe Illustrator 29.1.0, SVG Export Plug-In . SVG Version: 2.1.0 Build 142)  -->
  <defs>
    <style>
      .st0 {
        fill: #2a2623;
      }
    </style>
  </defs>
  <g id="_x23_2a2623ff">
    <path class="st0" d="M91.5,2.9c24.5-2.6,50.1,4.1,69.8,19,23.9,17.3,39.1,45.8,40.3,75.2,1.9,32.1-13.1,64.5-38.6,83.9-18,14.2-41.1,21.6-64,20.8-19.8-.6-39.6-7.1-55.5-19-18.6-13.3-32.3-33.3-37.9-55.5-4.7-17.1-4.3-35.4.4-52.4,5.4-19,16.5-36.4,31.7-49C52.7,12.9,71.9,5,91.5,2.9M96.2,22.1c-30.8,1.9-59.3,23.4-69.4,52.6-6.2,16.4-6.4,34.9-1.2,51.6,5.9,18.7,18.9,35,35.8,44.8,15.4,9.2,33.9,12.9,51.6,10.4,30.3-3.9,57.3-26.8,65.7-56.3,5-15.9,4.6-33.3-.8-49-6.9-20.3-22.2-37.6-41.7-46.5-12.4-5.9-26.4-8.5-40-7.5Z"/>
    <path class="st0" d="M98.6,47.7c8.5-2.4,17.8,4.4,18.2,13.2,1.1,9-7.8,17.3-16.7,15.7-8.7-.9-14.9-10.6-12.2-18.9,1.6-4.9,5.6-9.1,10.8-10.1Z"/>
    <path class="st0" d="M63.7,78.4c16.9,2.5,34.2,5.1,51.3,3.1,8.5-.6,17-1.8,25.5-3,.6,6.5,1.9,12.9,2.5,19.4-10.3,1.5-20.6,2.8-30.9,3.5.2,4.9.9,9.9,2.9,14.4,4.6,10.5,13.1,18.4,21,26.4-4.6,4.7-9.3,9.3-14.2,13.7-6.7-7.2-13.9-14-19.3-22.3-6.3,8.1-13.2,15.6-20.7,22.4-4.4-4.8-9-9.5-13.5-14.2,7.5-7.8,16.5-14.7,20.8-25,2.3-4.8,2.7-10.1,3.4-15.2-10.5-1.1-20.9-2-31.3-3.7.8-6.5,1.6-13,2.6-19.5Z"/>
  </g>
</svg>