<?xml version="1.0" encoding="UTF-8"?>
<svg id="Ebene_2" data-name="Ebene 2" xmlns="http://www.w3.org/2000/svg" viewBox="0 0 12.32 12.32">
  <defs>
    <style>
      .cls-1 {
        fill: #fff;
      }
    </style>
  </defs>
  <g id="Layer_1" data-name="Layer 1">
    <g>
      <path class="cls-1" d="M11.84,6.16C11.84,3.03,9.29.49,6.16.49S.49,3.03.49,6.16s2.55,5.68,5.68,5.68,5.68-2.55,5.68-5.68ZM6.16,2.33c.54,0,.97.44.97.97s-.44.97-.97.97-.97-.44-.97-.97.44-.97.97-.97ZM5.86,7.56l-1.73,2.28c-.12.16-.36.2-.52.08l-.03-.02c-.15-.11-.2-.32-.11-.48l1.58-3.04c.1-.18.03-.41-.16-.51l-2.27-1.2c-.18-.1-.25-.32-.16-.51h0c.09-.16.28-.24.45-.18l2.82.92c.37.1.53.1.86,0l2.82-.92c.18-.06.37.02.45.18h0c.1.18.03.41-.16.51l-2.27,1.2c-.18.1-.25.32-.16.51l1.58,3.04c.09.17.04.37-.11.48l-.03.02c-.17.12-.4.08-.52-.08l-1.73-2.29c-.15-.2-.45-.2-.6,0Z"/>
      <path d="M6.48,12.32s0,0,.01,0c.05,0,.1,0,.15,0,0,0,0,0,0,0,1.46-.11,2.78-.73,3.78-1.68,0,0,0,0,.01-.01.06-.06.12-.12.18-.18,0,0,.01-.01.02-.02.95-1,1.57-2.32,1.68-3.77,0,0,0,0,0,0,0-.05,0-.1,0-.14,0,0,0,0,0-.01,0-.05,0-.1,0-.14,0,0,0,0,0-.01,0-.05,0-.11,0-.16s0-.11,0-.16c0,0,0,0,0-.01,0-.05,0-.1,0-.14,0,0,0,0,0-.01,0-.05,0-.1,0-.14,0,0,0,0,0,0-.11-1.46-.73-2.78-1.68-3.77,0,0-.02-.02-.03-.03-.05-.05-.1-.1-.15-.15,0,0-.02-.02-.03-.03C9.41.75,8.1.13,6.64.02c0,0,0,0,0,0-.05,0-.1,0-.15,0,0,0,0,0-.01,0-.05,0-.1,0-.15,0,0,0,0,0-.01,0-.05,0-.11,0-.16,0s-.11,0-.16,0c0,0,0,0-.01,0-.05,0-.1,0-.15,0,0,0,0,0-.01,0-.05,0-.1,0-.15,0,0,0,0,0,0,0-1.46.11-2.78.73-3.77,1.68-.01.01-.02.02-.03.03-.05.05-.1.1-.15.15,0,0-.02.02-.03.03C.75,2.91.13,4.23.02,5.69c0,0,0,0,0,0,0,.05,0,.1,0,.14,0,0,0,0,0,.01,0,.05,0,.1,0,.14,0,0,0,0,0,.01,0,.05,0,.11,0,.16s0,.11,0,.16c0,0,0,0,0,.01,0,.05,0,.1,0,.14,0,0,0,0,0,.01,0,.05,0,.1,0,.14,0,0,0,0,0,0,.11,1.46.73,2.78,1.68,3.77,0,0,.01.01.02.02.06.06.12.12.18.18,0,0,.01.01.02.02,1,.95,2.32,1.57,3.78,1.68,0,0,0,0,0,0,.05,0,.1,0,.15,0,0,0,0,0,.01,0,.05,0,.1,0,.15,0,0,0,0,0,.01,0,.05,0,.11,0,.16,0s.11,0,.16,0c0,0,0,0,.01,0,.05,0,.1,0,.15,0ZM.49,6.16C.49,3.03,3.03.49,6.16.49s5.68,2.55,5.68,5.68-2.55,5.68-5.68,5.68S.49,9.29.49,6.16Z"/>
      <circle cx="6.16" cy="3.3" r=".97"/>
      <path d="M6.46,7.56l1.73,2.29c.12.16.36.2.52.08l.03-.02c.15-.11.2-.32.11-.48l-1.58-3.04c-.1-.18-.03-.41.16-.51l2.27-1.2c.18-.1.25-.32.16-.51h0c-.09-.16-.28-.24-.45-.18l-2.82.92c-.33.1-.49.1-.86,0l-2.82-.92c-.18-.06-.37.02-.45.18h0c-.1.18-.03.41.16.51l2.27,1.2c.18.1.25.32.16.51l-1.58,3.04c-.09.17-.04.37.11.48l.03.02c.17.12.4.08.52-.08l1.73-2.28c.15-.2.45-.2.6,0Z"/>
    </g>
  </g>
</svg>