<?xml version="1.0" encoding="UTF-8"?>
<svg id="Ebene_2" data-name="Ebene 2" xmlns="http://www.w3.org/2000/svg" viewBox="0 0 7.48 7.67">
  <defs>
    <style>
      .cls-1 {
        fill: #fff;
      }
    </style>
  </defs>
  <g id="Layer_1" data-name="Layer 1">
    <g>
      <circle class="cls-1" cx="3.74" cy=".97" r=".97"/>
      <path class="cls-1" d="M4.04,5.23l1.73,2.29c.12.16.36.2.52.08l.03-.02c.15-.11.2-.32.11-.48l-1.58-3.04c-.1-.18-.03-.41.16-.51l2.27-1.2c.18-.1.25-.32.16-.51h0c-.09-.16-.28-.24-.45-.18l-2.82.92c-.33.1-.49.1-.86,0L.5,1.65c-.18-.06-.37.02-.45.18H.04c-.1.18-.03.41.16.51l2.27,1.2c.18.1.25.32.16.51l-1.58,3.04c-.09.17-.04.37.11.48l.03.02c.17.12.4.08.52-.08l1.73-2.28c.15-.2.45-.2.6,0Z"/>
    </g>
  </g>
</svg>