<?xml version="1.0" encoding="UTF-8"?>
<svg id="Ebene_2" data-name="Ebene 2" xmlns="http://www.w3.org/2000/svg" viewBox="0 0 12.32 12.32">
  <defs>
    <style>
      .cls-1 {
        fill: #fff;
      }
    </style>
  </defs>
  <g id="Layer_1" data-name="Layer 1">
    <g>
      <path class="cls-1" d="M6.16.49C3.03.49.49,3.03.49,6.16s2.55,5.68,5.68,5.68,5.68-2.55,5.68-5.68S9.29.49,6.16.49ZM5.88,10.01c-.23-.21-.52-.44-.88-.64-.98-.55-1.93-.62-2.46-.61v-4.13c.55,0,1.59.08,2.53.61.32.18.59.38.81.57v4.19ZM4.94,3.53c0-.67.55-1.22,1.22-1.22s1.22.55,1.22,1.22-.55,1.22-1.22,1.22-1.22-.55-1.22-1.22ZM9.78,8.76c-.54,0-1.49.06-2.46.61-.36.2-.65.43-.88.64v-4.19c.22-.19.48-.39.81-.57.95-.53,1.98-.61,2.53-.61v4.13Z"/>
      <path d="M12.32,6s0,0,0-.01c0-.05,0-.1,0-.14,0,0,0,0,0-.01,0-.05,0-.1,0-.14,0,0,0,0,0,0-.11-1.46-.73-2.78-1.68-3.77,0,0-.02-.02-.03-.03-.05-.05-.1-.1-.15-.15,0,0-.02-.02-.03-.03C9.41.75,8.1.13,6.64.02c0,0,0,0,0,0-.05,0-.1,0-.15,0,0,0,0,0-.01,0-.05,0-.1,0-.15,0,0,0,0,0-.01,0-.05,0-.11,0-.16,0s-.11,0-.16,0c0,0,0,0-.01,0-.05,0-.1,0-.15,0,0,0,0,0-.01,0-.05,0-.1,0-.15,0,0,0,0,0,0,0-1.46.11-2.78.73-3.77,1.68-.01.01-.02.02-.03.03-.05.05-.1.1-.15.15,0,0-.02.02-.03.03C.75,2.91.13,4.23.02,5.69c0,0,0,0,0,0,0,.05,0,.1,0,.14,0,0,0,0,0,.01,0,.05,0,.1,0,.14,0,0,0,0,0,.01,0,.05,0,.11,0,.16s0,.11,0,.16c0,0,0,0,0,.01,0,.05,0,.1,0,.14,0,0,0,0,0,.01,0,.05,0,.1,0,.14,0,0,0,0,0,0,.11,1.46.73,2.78,1.68,3.77,0,0,.01.01.02.02.06.06.12.12.18.18,0,0,.01.01.02.02,1,.95,2.32,1.57,3.78,1.68,0,0,0,0,0,0,.05,0,.1,0,.15,0,0,0,0,0,.01,0,.05,0,.1,0,.15,0,0,0,0,0,.01,0,.05,0,.11,0,.16,0s.11,0,.16,0c0,0,0,0,.01,0,.05,0,.1,0,.15,0,0,0,0,0,.01,0,.05,0,.1,0,.15,0,0,0,0,0,0,0,1.46-.11,2.78-.73,3.78-1.68,0,0,0,0,.01-.01.06-.06.12-.12.18-.18,0,0,.01-.01.02-.02.95-1,1.57-2.32,1.68-3.77,0,0,0,0,0,0,0-.05,0-.1,0-.14,0,0,0,0,0-.01,0-.05,0-.1,0-.14,0,0,0,0,0-.01,0-.05,0-.11,0-.16s0-.11,0-.16ZM6.16,11.84C3.03,11.84.49,9.29.49,6.16S3.03.49,6.16.49s5.68,2.55,5.68,5.68-2.55,5.68-5.68,5.68Z"/>
      <circle cx="6.16" cy="3.53" r="1.22"/>
      <path d="M2.54,4.63v4.13c.54,0,1.49.06,2.46.61.36.2.65.43.88.64v-4.19c-.22-.19-.48-.39-.81-.57-.95-.53-1.98-.61-2.53-.61Z"/>
      <path d="M6.44,5.82v4.19c.23-.21.52-.44.88-.64.98-.55,1.93-.62,2.46-.61v-4.13c-.55,0-1.59.08-2.53.61-.32.18-.59.38-.81.57Z"/>
    </g>
  </g>
</svg>