<?xml version="1.0" encoding="UTF-8"?>
<svg id="Ebene_2" data-name="Ebene 2" xmlns="http://www.w3.org/2000/svg" viewBox="0 0 12.32 12.32">
  <defs>
    <style>
      .cls-1 {
        fill: #fff;
      }
    </style>
  </defs>
  <g id="Layer_1" data-name="Layer 1">
    <g>
      <path d="M12.32,6s0,0,0-.01c0-.05,0-.1,0-.14,0,0,0,0,0-.01,0-.05,0-.1,0-.14,0,0,0,0,0,0-.11-1.46-.73-2.78-1.68-3.77,0,0-.02-.02-.03-.03-.05-.05-.1-.1-.15-.15,0,0-.02-.02-.03-.03C9.41.75,8.1.13,6.64.02c0,0,0,0,0,0-.05,0-.1,0-.15,0,0,0,0,0-.01,0-.05,0-.1,0-.15,0,0,0,0,0-.01,0-.05,0-.11,0-.16,0s-.11,0-.16,0c0,0,0,0-.01,0-.05,0-.1,0-.15,0,0,0,0,0-.01,0-.05,0-.1,0-.15,0,0,0,0,0,0,0-1.46.11-2.78.73-3.77,1.68-.01.01-.02.02-.03.03-.05.05-.1.1-.15.15,0,0-.02.02-.03.03C.75,2.91.13,4.23.02,5.69c0,0,0,0,0,0,0,.05,0,.1,0,.14,0,0,0,0,0,.01,0,.05,0,.1,0,.14,0,0,0,0,0,.01,0,.05,0,.11,0,.16s0,.11,0,.16c0,0,0,0,0,.01,0,.05,0,.1,0,.14,0,0,0,0,0,.01,0,.05,0,.1,0,.14,0,0,0,0,0,0,.11,1.46.73,2.78,1.68,3.77,0,0,.01.01.02.02.06.06.12.12.18.18,0,0,.01.01.02.02,1,.95,2.32,1.57,3.78,1.68,0,0,0,0,0,0,.05,0,.1,0,.15,0,0,0,0,0,.01,0,.05,0,.1,0,.15,0,0,0,0,0,.01,0,.05,0,.11,0,.16,0s.11,0,.16,0c0,0,0,0,.01,0,.05,0,.1,0,.15,0,0,0,0,0,.01,0,.05,0,.1,0,.15,0,0,0,0,0,0,0,1.46-.11,2.78-.73,3.78-1.68,0,0,0,0,.01-.01.06-.06.12-.12.18-.18,0,0,.01-.01.02-.02.95-1,1.57-2.32,1.68-3.77,0,0,0,0,0,0,0-.05,0-.1,0-.14,0,0,0,0,0-.01,0-.05,0-.1,0-.14,0,0,0,0,0-.01,0-.05,0-.11,0-.16s0-.11,0-.16ZM6.16,11.84C3.03,11.84.49,9.29.49,6.16S3.03.49,6.16.49s5.68,2.55,5.68,5.68-2.55,5.68-5.68,5.68Z"/>
      <circle class="cls-1" cx="6.16" cy="6.16" r="5.68"/>
      <g>
        <path d="M7.72,2.38c.08-.06.18-.09.27-.05.05.02.09.07.1.12.01.06,0,.13-.03.19-.1.16-.21.3-.32.45-.16.21-.32.42-.46.64-.09.14-.19.28-.27.43-.02.04-.04.1-.02.14.01.03.04.03.07.03.02-.02.04-.03.06-.05.47-.46.94-.9,1.43-1.34.09-.08.18-.16.28-.23.06-.04.13-.05.2-.04.06.02.1.06.13.11.02.04.03.08.02.13-.01.07-.06.13-.11.19-.08.08-.15.16-.23.24-.13.13-.24.26-.37.38-.16.16-.31.31-.46.47-.15.15-.3.3-.44.45-.04.05-.08.09-.11.15-.01.03.02.06.04.07.04,0,.07-.02.11-.03.18-.1.35-.22.53-.34.36-.24.72-.49,1.09-.72.07-.04.14-.08.23-.08.08,0,.16.05.18.13.03.07.01.14-.03.2-.04.06-.09.1-.14.14-.28.24-.57.46-.86.68-.24.18-.48.35-.72.54-.03.03-.08.07-.08.12,0,.05.05.07.09.07.07,0,.14-.03.21-.05.43-.15.86-.3,1.3-.45.08-.03.17-.04.25,0,.04.02.07.06.08.1.02.05,0,.1-.03.14-.08.12-.21.17-.33.24-.15.08-.31.16-.47.23-.06.03-.12.06-.19.09-.15.07-.31.15-.46.22-.12.06-.24.11-.36.17-.01,0-.02.01-.02.02,0,0,0,0-.01,0-.04.02-.09.05-.13.07-.19.1-.37.21-.54.33-.09.06-.18.12-.27.17-.04.02-.08.04-.12.07-.01,0-.02.01-.03.02-.07.04-.15.06-.23.06-.22-.02-.43-.06-.64-.11-.2-.05-.4-.1-.6-.16,0,0-.01,0-.01-.01.01,0,.03,0,.04-.01.03-.01.05-.02.08-.03.06-.02.11-.05.16-.08.25-.12.49-.28.65-.51.06-.1.11-.21.1-.32,0-.09-.04-.18-.12-.23-.07-.05-.15-.05-.23-.04-.07.02-.12.06-.18.09-.07.04-.14.07-.22.11-.19.09-.39.17-.59.24-.24.08-.49.16-.75.19-.02,0-.04,0-.05,0,.06-.07.13-.14.17-.22.11-.18.16-.38.19-.59.03-.16.05-.32.1-.48.05-.16.11-.32.17-.48.09-.27.16-.55.22-.83.03-.12.05-.24.07-.36.01-.07.02-.14.04-.21.01-.04.04-.08.08-.09.05-.02.11,0,.16.04.1.08.15.21.17.33.01.11.02.21,0,.32-.01.2-.05.39-.1.58-.02.12-.05.24-.01.36,0,0,0,.02.01.02.02.05.07.08.12.09.05,0,.11,0,.16-.02.14-.07.25-.19.36-.3.07-.08.14-.17.21-.26.21-.27.42-.54.64-.8.17-.21.34-.41.53-.6.08-.09.16-.18.26-.26Z"/>
        <path d="M5.94,5.67s.09-.02.12.02c.03.04.03.1.02.15-.02.1-.08.18-.15.25-.1.11-.22.19-.35.27-.16.09-.33.16-.5.23-.05.02-.09.06-.09.11,0,.05.04.1.09.12.24.1.5.15.76.22.48.11.96.22,1.43.36.16.05.32.09.47.16.04.02.08.06.1.11.02.08-.02.18-.1.21-.06.02-.12,0-.18,0-.13-.02-.26-.05-.39-.08-.23-.05-.46-.09-.69-.14-.2-.04-.41-.09-.61-.12-.04,0-.09-.01-.12.02-.03.02-.03.06-.01.08.04.05.1.07.15.09.38.16.76.3,1.14.47.09.04.18.08.27.12.05.02.09.04.14.07.08.04.18.08.22.16.03.07.01.16-.04.21-.04.05-.11.07-.17.07-.12-.01-.23-.06-.34-.1-.52-.18-1.03-.37-1.54-.57-.05-.02-.12-.04-.17,0-.02.03-.01.08.02.1.08.08.18.14.27.2.26.16.52.31.78.46.13.07.26.15.38.22.06.04.12.07.17.11.03.03.05.06.05.1,0,.07-.04.14-.1.18-.05.04-.12.03-.18.01-.09-.03-.18-.08-.27-.12-.02,0-.04-.02-.05-.03-.07-.03-.13-.07-.2-.1-.02-.01-.04-.02-.07-.03-.12-.06-.23-.12-.35-.18-.05-.03-.11-.06-.16-.09-.08-.05-.17-.09-.25-.14-.08-.05-.17-.09-.25-.14-.05-.03-.1-.06-.16-.08-.04,0-.09.03-.07.07.03.07.09.12.14.17.19.18.38.36.57.54.1.1.2.19.29.29.03.04.07.08.08.13.02.07-.03.14-.09.16-.08.03-.16,0-.23-.04-.14-.08-.26-.19-.39-.29-.16-.13-.31-.26-.47-.39,0,0-.01,0-.02,0h.01c-.15-.12-.29-.25-.45-.35-.03-.02-.07-.04-.1-.06-.17-.1-.35-.19-.54-.27-.22-.1-.43-.21-.62-.37-.17-.14-.33-.31-.44-.5-.01-.03-.03-.05-.04-.08-.01-.02-.02-.05-.04-.07,0-.03.02-.04.04-.06.17-.19.33-.39.45-.62,0,0,0-.02.01-.02.04-.08.09-.17.1-.26.13.03.27,0,.39-.04.11-.04.22-.08.33-.13.09-.05.18-.11.28-.14.03-.01.07-.02.1-.02.21-.04.43-.09.63-.17.27-.1.54-.21.79-.34.08-.04.15-.08.22-.11Z"/>
      </g>
    </g>
  </g>
</svg>