<?xml version="1.0" encoding="UTF-8"?>
<svg id="Ebene_2" data-name="Ebene 2" xmlns="http://www.w3.org/2000/svg" viewBox="0 0 12.32 12.32">
  <defs>
    <style>
      .cls-1 {
        fill: #fff;
      }
    </style>
  </defs>
  <g id="Layer_1" data-name="Layer 1">
    <g>
      <circle cx="6.16" cy="6.16" r="6.16"/>
      <g>
        <circle class="cls-1" cx="6.16" cy="3.53" r="1.22"/>
        <path class="cls-1" d="M2.54,4.63v4.13c.54,0,1.49.06,2.46.61.36.2.65.43.88.64v-4.19c-.22-.19-.48-.39-.81-.57-.95-.53-1.98-.61-2.53-.61Z"/>
        <path class="cls-1" d="M6.44,5.82v4.19c.23-.21.52-.44.88-.64.98-.55,1.93-.62,2.46-.61v-4.13c-.55,0-1.59.08-2.53.61-.32.18-.59.38-.81.57Z"/>
      </g>
    </g>
  </g>
</svg>